<svg version="1" xmlns="http://www.w3.org/2000/svg" width="800" height="800" viewBox="0 0 600.000000 600.000000"><path d="M272.5 1c-17.9 1.9-29.3 3.9-47.7 8.5-12.5 3.2-32.1 9.6-39.3 12.9-1.6.8-5.2 2.4-8 3.6C125.4 48.8 77.3 90.5 46.3 139.5c-19.7 31.3-35.4 70.7-40.8 102.7-.3 1.8-.8 4-1 4.8-.2.8-.7 3.5-1 6-.3 2.5-.8 6.1-1.1 8-2 14-2.7 52.5-1.2 68 8.3 84.5 52.3 162 120.9 212.6 19.7 14.6 50.1 31.6 65.9 36.9.3.1 1.9.7 3.5 1.4 11.9 4.9 38.9 12.7 50.5 14.6 1.9.3 4.6.8 6 1 1.4.3 4.1.7 6 1 1.9.3 4.6.7 6 1 12.9 2.6 71.1 2.7 79.2.1.7-.3 3.6-.7 6.3-1 16-1.8 50-11 68.8-18.8 1.7-.7 10.6-5 19.8-9.6 47.9-23.7 89.5-61 118.5-106.2 16.5-25.7 31-58.2 36.9-82.7.3-1 1.4-5.5 2.5-10.1 2.3-9.6 4.8-23.4 5.6-30.7.3-2.8.8-6.1 1.1-7.5.9-4.3 1.1-50.2.2-58-1.4-13-2.6-21.9-3.4-26-8.7-45.8-25.7-85.8-52-122.5-2.7-3.9-5.2-7.2-5.5-7.5-.3-.3-3.2-3.9-6.5-8-10.4-13.1-35.6-37.4-49-47.2-.5-.4-2.3-1.8-4-3.2-4.5-3.5-20.1-13.8-28-18.3-35-20.2-72.5-32.9-112-37.9-2.2-.3-5.1-.8-6.5-1.1-4.1-.8-51.9-1-59.5-.3z"/></svg>